<svg xmlns="http://www.w3.org/2000/svg" data-name="ARTWORK" viewBox="0 0 1000 1000" class="svg-preview" style="max-width: 100%; max-height: 500px;"><path d="M833.696 812.61c-18.41-10.996-33.829-25.119-47.412-42.719.965 1.251-.038-.061-.193-.269-.388-.52-.78-1.038-1.167-1.559a220 220 0 0 1-2.294-3.152c-1.702-2.384-3.378-4.793-4.971-7.252-3.027-4.673-5.961-9.399-8.712-14.242-5.393-9.494-10.156-19.319-14.492-29.336-.866-2.002-.205-.476-.033-.064q-.384-.918-.763-1.836a355 355 0 0 1-4.708-12.055 397 397 0 0 1-5.533-16.012c-3.347-10.383-6.472-20.839-9.218-31.399-2.767-10.644-5.204-21.372-7.375-32.153a462 462 0 0 1-3.268-17.932 596 596 0 0 1-1.396-9.301q-.168-1.165-.332-2.331c-.044-.314-.377-2.744-.182-1.297s-.128-.987-.168-1.301a477 477 0 0 1-.37-2.927c-6.618-53.451-6.302-107.541-14.829-160.791-4.309-26.907-11.232-53.153-21.976-78.229-4.358-10.171-9.52-19.511-17.192-27.62-7.637-8.072-18.546-15.124-30.123-14.046-14.231 1.324-25.625 12.414-28.16 26.378-2.459 13.545-.08 27.777.907 41.367 2.192 30.192 4.352 60.386 6.645 90.57l1.694 22.305h23.036c-3.166-33.474-6.104-66.97-9.122-100.458-1.49-16.536-2.927-33.077-4.474-49.608-1.335-14.261-3.198-28.614-9.814-41.525-5.922-11.556-16.169-20.677-29.015-23.536-12.064-2.684-25.374-.755-34.641 7.929-11.944 11.193-9.397 29.121-9.198 43.882l.678 50.31c.507 37.619.991 75.238 1.546 112.857h23.356l-4.264-106.524c-.692-17.299-1.376-34.598-2.077-51.896-.506-12.483-1.674-25.419-6.441-37.085-5.226-12.787-14.791-24.076-28.951-26.946-15.167-3.074-30.818 3.679-40.772 15.205-11.128 12.886-14.676 29.412-15.293 46.052-.626 16.905.699 33.995 1.243 50.895 1.268 39.355 2.504 78.71 3.835 118.063.209 6.186 5.298 12.138 11.845 11.845 6.461-.289 11.792-5.204 11.845-11.845.335-41.535-3.002-83.027-9.73-124.012-2.486-15.144-4.799-30.623-10.693-44.893-5.756-13.936-15.281-28.841-31.179-32.148-17.404-3.621-31.595 6.51-40.84 20.457-9.37 14.136-13.463 31.223-15.581 47.818-2.453 19.222-1.44 38.621-.089 57.886 1.378 19.633 2.178 39.108 2.364 58.787.439 46.432 2.612 92.91 7.542 139.093.685 6.42 5.204 12.705 12.383 12.383 6.229-.279 12.984-5.472 12.383-12.383-2.27-26.118-4.95-52.825-17.108-76.503-6.292-12.253-15.561-24.967-29.327-29.114-13.673-4.119-28.689 1.29-38.853 10.658-9.971 9.19-15.525 22.286-19.662 34.922-4.066 12.419-6.397 25.356-7.535 38.361-2.207 25.202 1.293 50.989 8.375 75.203 7.265 24.837 18.349 48.733 32.162 70.595 12.73 20.148 26.981 39.691 43.356 57.042 15.691 16.626 33.847 31.224 53.839 42.362 23.99 13.364 50.345 20.5 76.04 29.681a307 307 0 0 1 9.642 3.614c.831.329 5.415 1.946 2.273.894 1.499.502 2.955 1.283 4.393 1.937 5.342 2.428 10.584 5.078 15.707 7.94s10.146 5.916 15.041 9.15a220 220 0 0 1 10.473 7.368c.57.426 1.134.86 1.703 1.287 1.644 1.232-2.755-2.204-.014 0 9.167 7.37 17.828 15.283 25.787 23.953 3.773 4.11 7.943 8.362 11.043 13.018-2.002-3.007.388.518.97 1.299.426.571.843 1.147 1.271 1.716l2.269 2.936-.962-1.239c.705.171 2.126 2.835 2.562 3.431a222 222 0 0 1 3.104 4.356c3.231 4.655 6.478 9.432 9.17 14.417 3.37 6.242 12.527 8.731 18.532 4.859 6.337-4.086 8.464-11.855 4.859-18.532-5.337-9.886-10.534-19.732-17.326-28.74-7.29-9.668-15.118-18.877-23.779-27.348-16.604-16.24-35.743-30.303-56.518-40.728-24.074-12.08-50.088-18.505-75.275-27.668a306 306 0 0 1-9.424-3.626c-2.404-.966 2.207.975-1.105-.469a205 205 0 0 1-19.347-9.677 199 199 0 0 1-13.451-8.377 202 202 0 0 1-6.182-4.37c-.965-.71-2.111-1.957-3.215-2.414.323.134 2.442 1.928.453.338-.522-.418-1.048-.831-1.569-1.251-8.343-6.716-16.161-14.07-23.491-21.877a281 281 0 0 1-10.46-11.807 318 318 0 0 1-4.892-5.982c-.838-1.05-1.861-2.12-2.57-3.261.223.36 1.749 2.292.228.291q-.635-.833-1.268-1.669c-14.065-18.618-26.85-38.32-36.748-59.486a275 275 0 0 1-3.743-8.375c1.023 2.393-.317-.8-.632-1.583a257 257 0 0 1-1.881-4.804 244 244 0 0 1-5.854-17.327 225 225 0 0 1-4.342-17.066 210 210 0 0 1-1.598-8.325c-.253-1.482-.477-2.967-.711-4.452-.087-.556-.356-2.574 0 .134q-.147-1.116-.28-2.233c-1.415-11.834-1.791-23.804-.875-35.692a162 162 0 0 1 .586-6.09c.045-.393.33-2.736.117-1.061-.198 1.553.044-.294.076-.508.112-.735.221-1.47.34-2.204q.401-2.478.88-4.944a152 152 0 0 1 4.451-17.37c.85-2.651 1.8-5.26 2.782-7.864.166-.44.948-2.199-.002-.06.224-.504.446-1.008.676-1.509a69 69 0 0 1 2.212-4.423 59 59 0 0 1 2.238-3.753c.396-.608.811-1.202 1.225-1.797.096-.138 1.213-1.518.342-.472-.956 1.149.539-.575.765-.827a40 40 0 0 1 3.073-3.077c.496-.443 2.366-1.568.325-.33 1.03-.625 2.002-1.331 3.06-1.915.603-.333 1.234-.612 1.84-.938 1.569-.844-1.807.468-.078.066 1.149-.267 2.305-.676 3.445-.992 2.171-.601.295-.09-.25-.051.843-.06 1.672-.12 2.517-.117.67.002 1.336.072 2.004.09 1.745.048-1.906-.625-.292.021.812.325 3.505 1.286 1.359.226 1.313.649 2.576 1.375 3.757 2.244-.476-.351-1.509-1.392.056.175.651.652 1.321 1.278 1.95 1.953.443.476 2.643 3.107 1.272 1.343.915 1.177 1.765 2.416 2.594 3.654a85 85 0 0 1 4.564 7.68 95 95 0 0 1 1.978 3.988c.314.672.608 1.353.918 2.028-.088-.192-.672-1.698-.158-.375 1.147 2.954 2.248 5.912 3.192 8.937 1.739 5.57 3.079 11.26 4.159 16.992a213 213 0 0 1 1.409 8.436q.165 1.131.324 2.264c-.326-2.311-.045-.329.008.119.204 1.705.415 3.408.604 5.114.648 5.849 1.16 11.712 1.656 17.575h24.766c-4.097-39.264-6.528-78.659-7.462-118.125-.45-19.015-.089-38.065-1.247-57.055-1.129-18.514-3.088-37-3.098-55.567a224 224 0 0 1 .327-12.558q.172-3.126.451-6.245.168-1.87.377-3.734c.031-.276.503-3.796.205-1.741 1.198-8.266 2.976-16.546 5.83-24.408.27-.744.567-1.478.842-2.22.94-2.536-.896 1.803-.107.214.687-1.383 1.273-2.814 1.973-4.193 1.438-2.829 3.124-5.449 4.853-8.1 1.579-2.422-1.672 1.86.211-.312.368-.425.719-.863 1.092-1.284 1.012-1.143 2.124-2.157 3.206-3.228.926-.916.803-1.662-.192.055.282-.486 1.502-1.046 1.977-1.337a25 25 0 0 1 2.772-1.468q-2.418.995-.622.341c.504-.117.999-.304 1.503-.427 2.743-.668.045-.227.011-.089-.068.277 5.903-.486 1.872-.226 1.51-.097 3.027.887 4.465 1.168 1.474.288-2.389-1.371-.312-.073.76.475 1.553.927 2.322 1.389 1.605.963.834-.151-.157-.17.38.007 1.496 1.332 1.77 1.598.974.949 1.851 1.972 2.732 3.007-2.023-2.374.667 1.063 1.111 1.76a58 58 0 0 1 2.569 4.49 76 76 0 0 1 2.239 4.758c-1.137-2.629.466 1.316.761 2.133a112 112 0 0 1 2.794 8.934c1.895 7.029 3.133 14.221 4.396 21.384 3.807 21.58 6.278 40.883 8.058 63.035a715 715 0 0 1 2.227 65.308h23.69c-1.012-33.023-2.099-66.043-3.163-99.064l-1.575-48.854c-.245-7.612-.567-15.241-.252-22.856.075-1.809.186-3.617.35-5.421.072-.798.16-1.594.247-2.39-.207 1.89.016-.103.071-.418.702-3.948 1.692-7.713 2.934-11.523.074-.228.821-2.076.155-.516a39 39 0 0 1 3.161-5.807c.364-.553.758-1.085 1.133-1.63 1.052-1.528-1.826 1.859.343-.353 1.165-1.189 2.253-2.431 3.494-3.548.492-.443 1.005-.86 1.509-1.29-1.656 1.412-.409.306.007.045 1.251-.783 2.453-1.593 3.762-2.282.556-.293 2.565-1.189.282-.253a28 28 0 0 1 1.797-.662c1.506-.502 3.036-.844 4.595-1.131-2.811.518 1.214.082 2.072.121.407.018 2.368.318.814.028-1.858-.347 1.227.34 1.278.354.983.265 3.78 1.722 1.347.334 1.192.68 2.397 1.299 3.566 2.027 1.693 1.053-.141-.097-.407-.344.491.457 1.011.88 1.495 1.347.877.847 1.663 1.758 2.45 2.686-1.633-1.925-.027.066.562 1.012a40 40 0 0 1 2.025 3.682c.059.122 1.185 2.692.472.97-.72-1.74.335.937.376 1.049a61 61 0 0 1 1.111 3.364c.824 2.752 1.467 5.556 1.984 8.381.248 1.356.455 2.717.66 4.081-.39-2.595.036.471.139 1.477.306 2.98.505 5.969.639 8.962.723 16.219 1.262 32.449 1.892 48.672l4.348 111.986c.237 6.097 5.202 11.968 11.678 11.678 6.256-.28 11.767-5.133 11.678-11.678-.427-31.501-.91-63-1.378-94.501l-.696-46.91-.343-23.115-.172-11.558c-.028-1.871-.075-3.743-.053-5.614.009-.795.026-1.59.068-2.384.015-.289.394-3.179.161-1.995-.307 1.556.602-2.192.544-1.914.495-2.385.151.469-.188.232-.208-.146 1.57-2.476 1.487-2.561.147.151-1.979 2.113-.458.649.324-.312.698-.678 1.002-1.02 1.295-1.455-.359.495-.698.438.147.025 1.627-1.083 1.794-1.18.416-.243.851-.447 1.271-.682 1.845-1.036-.645.434-.756.297.053.065 2.596-.814 2.831-.872.488-.119.983-.198 1.47-.315 2.458-.587-2.065.023-.431.056 1.155.023 2.319-.14 3.481-.11.52.013 1.044.072 1.564.078 2.606.032-1.965-.459-.33-.09 1.034.233 2.076.383 3.104.65 1.015.263 2.019.717 3.035.945 1.582.354-2.481-1.284-.193-.1.586.303 1.183.58 1.761.898.916.504 1.756 1.173 2.671 1.663 1.387.743-1.977-1.881-.177-.124.372.363.774.693 1.146 1.056.93.909 1.782 1.893 2.615 2.891-.307-.368-1.163-1.687.059.129a59 59 0 0 1 1.67 2.58 48 48 0 0 1 1.949 3.603c.301.615.586 1.239.864 1.865-.854-1.922-.133-.281.004.112 1.04 2.971 1.978 5.943 2.695 9.011.686 2.934 1.223 5.9 1.668 8.879.048.321.345 2.54.163 1.113s.089.795.127 1.117c.208 1.76.392 3.523.565 5.287 1.496 15.241 2.789 30.505 4.177 45.756 3.213 35.294 6.516 70.58 9.573 105.888.518 5.987 4.926 11.813 11.518 11.518 5.89-.264 11.956-5.08 11.518-11.518a26459 26459 0 0 0-6.171-88.543l-3.182-44.609c-.19-2.664-.39-5.329-.446-8a69 69 0 0 1 .021-4.035c.026-.669.086-1.335.112-2.003.124-3.173-.547 2.273.062-.801.22-1.108.447-2.209.767-3.293.105-.356.692-2.312.197-.83-.484 1.447.194-.368.388-.728.297-.55.67-1.058.967-1.604.748-1.374-1.333 1.123-.077.16.492-.377.99-.905 1.415-1.361.904-.971-1.463.756.347-.238.515-.283 1.058-.61 1.564-.919 1.764-1.077-.025.027-.465.149.499-.138 1.088-.299 1.562-.476 1.766-.659-.55.775-.795.013-.033-.104 3.078.01 3.087-.011-.103.24-2.993-.712-.845-.062.62.188 1.257.344 1.88.522 2.65.757-1.583-1.019.864.386.846.486 1.673.954 2.481 1.499.469.316.917.66 1.385.976-2.136-1.442-.844-.68-.373-.242 1.076.999 2.182 1.952 3.21 3.004q1.246 1.277 2.409 2.629c.382.443 2.205 2.746 1.31 1.558-.981-1.301.157.23.386.557.333.475.672.946 1 1.425a73 73 0 0 1 2.072 3.202c2.681 4.392 4.78 9.053 6.825 13.767.799 1.842-.591-1.444.175.408q.454 1.095.897 2.194.885 2.195 1.731 4.405a272 272 0 0 1 3.406 9.434 293 293 0 0 1 5.475 18.006c3.377 12.504 5.981 25.208 8.042 37.992a483 483 0 0 1 1.738 11.695c-.072-.524-.278-2.15.038.308q.342 2.644.663 5.292a712 712 0 0 1 2.068 19.496c1.197 12.874 2.102 25.773 2.947 38.674 1.698 25.934 3.135 51.906 6.193 77.725 5.442 45.951 16.449 91.631 34.954 134.12 8.541 19.611 18.89 38.542 31.716 55.693 6.748 9.024 13.985 17.665 22.017 25.578 8.574 8.446 16.63 15.014 25.866 21.52a174 174 0 0 0 13.38 8.513c10.318 5.942 19.522-9.846 9.318-15.941Z"/><path d="M496.897 280.866c-3.133-6.6-7.93-12.731-14.341-16.418-6.32-3.635-13.397-4.413-20.491-3.272-11.946 1.922-22.925 10.234-30.335 19.489-4.792 5.984-8.676 12.388-10.958 19.763l20.567 5.67c3.03-10.312 3.238-21.248-1.349-31.116-4.445-9.56-14.362-15.893-24.553-17.651-8.848-1.526-17.154-.558-25.294 3.277-6.492 3.059-12.058 8.238-16.443 13.848-20.747 26.542-25.185 62.351-28.659 94.748-1.344 12.53-2.367 25.09-3.509 37.638a1048 1048 0 0 1-1.894 19.134 711 711 0 0 1-1.907 15.782c.286-2.167.058-.431-.003.002-.185 1.319-.368 2.638-.557 3.956l21.516 2.912a297 297 0 0 1 .24-26.645c.437-7.985 1.749-15.879 2.294-23.837-.129 1.885-.11.824.055-.344q.227-1.61.464-3.217.418-2.83.862-5.654c.626-3.988 1.284-7.971 1.946-11.953 1.441-8.658 2.886-17.314 4.199-25.992 1.981-13.093 2.817-25.862.811-39.015-1.922-12.6-7.899-26.143-20.105-31.778-9.769-4.51-19.893-5.253-29.755-.598-7.949 3.752-14.022 11.185-18.486 18.54-10.099 16.637-14.962 36.581-18.649 55.501-1.571 8.063-2.864 16.177-3.996 24.313-.523 3.758-1.017 7.519-1.516 11.28l-.11.828c-.083.629-.209 1.497.196-1.461l-.202 1.504-1.014 7.518a8887 8887 0 0 1-1.973 14.527c-5.257 38.476-10.92 76.884-17.353 115.183-5.19 30.898-10.764 62.014-20.448 91.878-1.558 4.806-3.211 9.589-5.02 14.307-.943 2.461-1.878 4.925-2.861 7.37-.48 1.193-.974 2.38-1.463 3.57-.56 1.362 1.2-2.817.619-1.463l-.326.765q-.438 1.021-.883 2.04c-4.415 10.091-9.434 19.922-15.119 29.357a226 226 0 0 1-9.324 14.247 216 216 0 0 1-3.51 4.801l-.721.952c-1.022 1.36.802-1.018.914-1.175-1.674 2.354-3.617 4.566-5.481 6.771-7.71 9.12-16.23 17.556-25.488 25.103-1.068.87-2.163 1.706-3.232 2.576 3.254-2.649 1.154-.891.364-.295a185 185 0 0 1-9.783 6.898c-5.387 3.543-10.93 6.872-16.62 9.906a191 191 0 0 1-8.936 4.466 197 197 0 0 1-4.472 2.024l-.972.422c-1.925.841 1.017-.427 1.142-.477-.885.352-1.761.73-2.645 1.085-6.613 2.656-13.369 5-20.2 7.03-6.988 2.076-14.111 3.911-21.287 5.213-6.39 1.16-10.583 9.265-8.65 15.235 2.218 6.853 8.389 9.893 15.235 8.65 27.904-5.064 55.169-14.102 79.032-29.768 21.426-14.066 39.572-31.967 54.644-52.634 13.443-18.434 23.708-38.922 31.876-60.179 8.892-23.142 14.217-47.465 18.705-71.787 6.923-37.52 12.561-75.295 17.787-113.085 2.722-19.68 5.306-39.378 7.839-59.083q1.023-7.945 2.026-15.893.29-2.303.592-4.605l.161-1.22c.208-1.586-.419 3.073-.196 1.459q.195-1.42.392-2.839c2.553-18.121 5.865-36.36 11.889-53.685.749-2.153 1.545-4.29 2.4-6.403.19-.47.98-2.362.193-.487s.007.005.212-.457a98 98 0 0 1 1.467-3.152c1.803-3.697 3.868-7.238 6.277-10.574.998-1.383-.246.422-.688.878.315-.324.58-.721.873-1.067a40 40 0 0 1 1.931-2.129 33 33 0 0 1 1.881-1.78c.315-.275.669-.522.969-.81.133-.128-2.501 1.756-.727.594.63-.413 1.249-.836 1.904-1.21.603-.344 3.31-1.571 1.176-.668-2.085.883.483-.12 1.121-.297.401-.112 2.253-.25 2.48-.523-.303.363-3.341.262-1.272.218.407-.009.812-.041 1.219-.043.838-.004 1.67.129 2.504.138-3.88-.043-1.199-.176.168.158.98.239 1.945.538 2.893.883.883.321 2.294 1.23-.727-.349.392.205.815.36 1.213.554.574.279 1.135.58 1.681.911.357.216 2.47 1.714.924.559-1.534-1.146.227.264.554.58.452.436.858.912 1.293 1.362 1.504 1.559-1.08-1.655-.129-.207.404.615.825 1.214 1.203 1.846.663 1.11 1.086 2.458 1.806 3.514.037.054-.81-2.202-.497-1.165.083.275.214.546.314.816q.41 1.108.761 2.237a47 47 0 0 1 1.069 4.09q.226 1.052.417 2.111c.099.549.48 3.182.247 1.37s.062.594.113 1.09q.112 1.09.195 2.183.178 2.336.235 4.678c.072 2.829.023 5.661-.126 8.486a120 120 0 0 1-.656 7.714c-.051.435-.347 2.719-.063.581.28-2.108-.008-.01-.08.468-.361 2.41-.748 4.818-1.14 7.223-1.363 8.359-2.872 16.694-4.334 25.036-2.821 16.102-5.39 32.289-6.389 48.622-.525 8.587-.559 17.191-.263 25.787.188 5.476 4.025 10.023 9.498 10.758 4.828.649 11.242-2.45 12.018-7.846 3.269-22.723 5.166-45.554 7.308-68.399a963 963 0 0 1 1.641-16.174 709 709 0 0 1 1.491-12.46l.249-1.91c.345-2.643-.215 1.483.131-.955.874-6.15 1.86-12.259 3.198-18.327 1.44-6.528 3.157-13.002 5.269-19.347a149 149 0 0 1 2.476-6.879c.19-.488 1.547-3.752.715-1.825s.354-.802.563-1.27q.513-1.147 1.052-2.281a97 97 0 0 1 2.373-4.676c1.612-2.969 3.391-5.853 5.394-8.576 1.564-2.127-1.235 1.487-.131.161.54-.649 1.072-1.301 1.633-1.933a45 45 0 0 1 3.284-3.344c.534-.488 1.106-.934 1.64-1.421 1.166-1.064-1.059.804-1.072.812.333-.197.638-.473.956-.697a32 32 0 0 1 3.788-2.301c.343-.176.695-.335 1.039-.508 1.048-.525 1.3.033-1.104.451.581-.101 1.173-.444 1.74-.626a28 28 0 0 1 2.24-.618c.304-.07.613-.124.917-.194 1.227-.284 1.717.268-1.009.092 1.596.103 3.262-.247 4.884-.162.424.022.846.068 1.269.094 2.297.145-1.967-.39-.805-.121 1.108.256 2.226.415 3.329.71 1.155.309 2.254.816 3.4 1.126-2.323-.628-1.419-.651-.736-.263.562.32 1.147.597 1.701.932.435.263.856.631 1.308.856.857.427-1.898-1.802-.288-.181.691.696 1.453 1.741 2.22 2.332-.16-.123-1.493-2.214-.662-.794.29.496.618.963.898 1.466.186.335.345.683.53 1.017.993 1.796-.766-2.289-.19-.452.293.935.604 1.849.825 2.806.11.478.156.99.291 1.46.29 1.006-.19-2.879-.077-.459.104 2.237.056 4.398-.08 6.633-.111 1.816.075-.693.148-.893-.217.594-.212 1.352-.332 1.983a53 53 0 0 1-.94 4.004c-1.458 5.379 1.818 11.836 7.448 13.118 5.685 1.295 11.474-1.708 13.118-7.448.283-.989.598-1.967.958-2.931.118-.316.288-.655.383-.982.046-.157-1.05 2.301-.547 1.305.286-.566.527-1.156.808-1.724a51 51 0 0 1 3.725-6.295c.328-.475.673-.936 1.005-1.407 1.055-1.495-1.4 1.692-.221.281.875-1.047 1.745-2.093 2.675-3.092 1.722-1.851 3.582-3.526 5.509-5.158 1.381-1.169-1.756 1.249-.279.217.465-.325.92-.664 1.389-.983a42 42 0 0 1 3.08-1.909c1.014-.569 2.168-.975 3.153-1.581-.939.578-1.972.784-.473.237q.858-.313 1.733-.573c.972-.288 2.345-.296 3.225-.748-.795.408-2.465.207-.713.122.577-.028 1.15-.065 1.728-.063.492.002.98.043 1.471.057 2.081.059-2.104-.519-.496-.073.991.275 2.093.679 3.097.857.899.159-1.23-.538-1.224-.534.269.185.633.294.925.444q.935.481 1.814 1.057c.219.144.436.335.667.458.98.521-1.507-1.342-.695-.538.476.471 1.016.883 1.494 1.355.504.497.969 1.026 1.444 1.55.051.057.628.679.604.721.012-.022-1.239-1.77-.356-.425 1.054 1.604 2.05 3.202 2.932 4.91 2.331 4.514 9.022 6.213 13.264 3.478 4.723-3.045 5.811-8.35 3.478-13.264Zm-245.575 632.01 40.764-14.548c13.588-4.849 26.971-9.834 40.428-14.835 12.866-4.781 25.757-9.501 38.59-14.369 12.337-4.68 24.594-9.769 36.316-15.846 6.024-3.123 11.9-6.541 17.507-10.365 3.62-2.469 7.1-5.152 10.503-7.909a120 120 0 0 0 3.846-3.25c1.119-.986 2.03-1.89 2.955-3.088 1.488-1.926 2.314-4.104 3.111-6.394 1.484-4.265-.229-9.459-3.316-12.547-3.195-3.195-8.167-4.631-12.547-3.316-.475.142-.955.269-1.427.42-2.727.871-4.85 2.211-6.913 4.117q-1.312 1.21-2.66 2.381a129 129 0 0 1-5.509 4.51l2.79-2.156c-12.785 9.847-26.959 17.469-41.632 24.098-15.898 7.183-32.047 13.82-48.106 20.63l-29.546 12.529 2.706-1.142c-9.614 4.001-19.098 8.34-28.631 12.53l-26.378 11.592c-1.904.837-3.816 3.578-4.263 5.544-.473 2.075-.364 4.071.468 6.041 1.679 3.979 6.57 6.933 10.945 5.372Z"/><path d="M758.134 717.149a1351 1351 0 0 0 173.778-78.408l-113.569-36.562 156.656-176.498-157.422-4.093c-5.148-.134-10.77-.447-14.604-3.885-6.168-5.532-4.262-15.468-1.794-23.378A1602 1602 0 0 1 871.32 210.19l-136.296 59.367c4.248-63.427-1.739-127.529-17.657-189.073a951.5 951.5 0 0 1-116.978 112.257c-6.12 4.944-14.434 10.035-21.267 6.135-3.608-2.06-5.538-6.086-7.255-9.87L504.985 41.543c-6.758 55.071-29.125 108.14-63.824 151.436A2940 2940 0 0 0 308.688 73.022l-31.094 157.704-167.717-54.209 94.644 202.853-179.523-23.473c35.341 56.096 80.563 105.948 132.96 146.572L33.624 518.395c18.172 29.107 44.967 51.615 71.307 73.607l101.439 84.7c39.69-81.786 60.6-172.616 60.666-263.523.024-32.383-2.264-66.281 11.526-95.581s50.872-50.747 79.165-34.995c15.425-25.452 53.973-32.979 77.839-15.198 11.972-18.209 43.683-17.388 54.696 1.418 12.688-20.689 50.286-15.92 57.407 7.281 9.476-11.085 27.369-11.848 40.105-4.743s20.994 20.258 26.427 33.791c22.22-5.248 47.094 3.151 61.584 20.795 9.903 12.058 14.835 27.369 18.762 42.47 29.25 112.482 14.377 233.975 51.768 344.018"/><path d="M760.662 726.318c60.989-20.564 120.904-46.172 177.565-76.775 9.876-5.334 6.85-19.715-2.989-22.867l-113.612-36.405 5.449 20.638c52.137-58.902 104.564-117.546 156.747-176.408 7.14-8.054 2.344-21.015-8.822-21.298-52.471-1.334-104.96-2.348-157.422-4.001-1.412-.044-2.869-.021-4.272-.207.762.101 1.043-.198-.917-.203-1.035-.002-1.904-.15-.664.158-.558-.138-1.192-1.831-.414-.419 1.186 2.154-.42-2.159-.025.319-.134-.841-.043-1.769-.068-2.607-.103-3.44-.499 1.36.191-2.085a61 61 0 0 1 .94-3.991c3.254-11.984 7.473-23.791 11.419-35.561a1611 1611 0 0 1 25.441-70.383 1565 1565 0 0 1 32.655-77.872c5.207-11.54-5.259-21.705-16.705-16.705a97389 97389 0 0 1-136.269 59.415l18.29 10.495c4.255-64.536-1.931-129.686-17.997-192.33-2.195-8.558-14.35-12.366-20.479-5.407-29.615 33.624-61.534 65.191-95.563 94.343-7.694 6.591-15.711 14.311-23.923 19.516-.188.119-5.026 3.087-5.26 2.366-.152-.468 1.907.371 1.732.451-.433.197-2.08-3.455-2.56-4.465-1.277-2.686-2.459-5.421-3.685-8.131l-29.877-66.053-33.757-74.631c-2.25-4.975-9.221-7.117-14.156-5.761-5.768 1.585-8.5 6.535-9.203 12.088-6.475 51.166-27.84 101.81-60.223 142.501h17.869A3112 3112 0 0 0 317.702 64.01c-6.725-5.755-19.236-4.485-21.3 5.623-10.716 52.488-20.826 105.102-31.403 157.619l16.071-9.125c-55.839-18.301-111.741-36.403-167.589-54.675-5.083-1.663-11.161.733-14.241 4.855-3.477 4.653-3.444 9.888-1.059 15.047 31.31 67.737 62.881 135.35 94.449 202.967l11.893-20.726c-58.616-7.649-117.293-14.937-175.851-23.017-5.636-.778-10.859.053-14.518 4.95-3.233 4.326-4.054 10.558-1.08 15.34 35.653 57.316 81.677 108.114 134.947 149.539l9.939-23.994c-41.444 5.309-82.888 10.623-124.334 15.921-5.1.652-9.394 2.27-12.14 6.964-2.474 4.227-2.657 9.981 0 14.193 15.549 24.646 36.45 44.959 58.452 63.803 24.33 20.838 49.073 41.23 73.787 61.611a3655 3655 0 0 0 43.29 35.155c5.955 4.76 16.885 5.847 20.783-2.678 27.09-59.234 47.12-120.732 56.022-185.405 4.416-32.08 6.265-64.206 6.007-96.578-.224-28.155-1.794-60.013 13.847-84.781a68 68 0 0 1 2.974-4.347c.867-1.161.212-.265.029-.038a77 77 0 0 1 9.21-9.538c.5-.435 1.011-.857 1.518-1.284q1.012-.81.022-.065l1.061-.786a81 81 0 0 1 4.36-2.94c2.251-1.402 6.378-3.602 7.67-4.164 1.233-.536 5.578-1.973 8.095-2.575.534-.128 4.999-.938 2.757-.643 1.623-.214 3.274-.304 4.911-.329s3.263.057 4.892.186c-2.241-.177 2.079.399 2.694.546 1.412.339 2.777.793 4.158 1.234 1.979.631-1.43-.71.491.148.976.436 1.921.937 2.866 1.434 6.146 3.228 13.465 1.47 17.199-4.51.43-.689.896-1.359 1.319-2.051.38-.622 1.01-1.445.195-.383 1.099-1.433 2.346-2.768 3.623-4.042a53 53 0 0 1 3.568-3.234c1.551-1.288-1.33.907.333-.238.663-.457 1.321-.918 1.997-1.356a55 55 0 0 1 4.707-2.726c.719-.37 1.45-.713 2.178-1.063.705-.338 1.605-.634.367-.162a61 61 0 0 1 9.926-2.875 56 56 0 0 1 2.398-.424c2.04-.313-1.747.131.312-.007 1.621-.109 3.231-.236 4.857-.253s3.232.058 4.849.152c.826.048 2.723.28.907.025a44 44 0 0 1 2.381.414c3.135.618 6.285 1.482 9.235 2.722-1.599-.672.26.165.885.494.714.376 1.428.745 2.129 1.146 1.587.908 3.098 1.917 4.581 2.986 5.684 4.096 13.431.646 16.905-4.433q1.235-1.749.03-.142.523-.622 1.095-1.201c.271-.25 2.644-2.422 1.554-1.546-1.019.818 1.933-1.235 2.298-1.444a27 27 0 0 1 2.882-1.454c-2.497 1.054.835-.158 1.114-.24 1.052-.31 2.113-.507 3.174-.776 2.769-.7-1.58-.082 1.051-.143 1.284-.03 2.554-.122 3.841-.087.381.01 3.742.287 2.183.091-1.498-.189 2.267.483 2.657.582 1.059.269 2.083.631 3.127.947 2.417.732-1.333-.94 1.018.455a81 81 0 0 0 2.798 1.608c2.343 1.266-.85-1.058.915.644.775.748 1.531 1.509 2.297 2.265q1.37 1.619.088.034.632.901 1.187 1.852c4.998 8.163 16.375 7.866 21.436 0q.54-.878 1.15-1.71-1.359 1.76-.006.18c.455-.403 3.69-3.087 1.211-1.335a30 30 0 0 1 3.36-2.082c1.066-.561 2.649-.989.661-.357 1.279-.407 2.53-.84 3.839-1.147a35 35 0 0 1 1.978-.402q-2.458.282-.289.053c1.364-.064 2.713-.162 4.081-.132.363.008 4.202.31 2.431.096-1.761-.213 2.014.412 2.379.499 1.332.317 2.607.769 3.916 1.157q1.986.764-.156-.117.92.417 1.813.888c1.04.548 2.013 1.184 3.011 1.799 2.583 1.591-.551-.866.996.8.9.97 1.868 1.847 2.727 2.862-1.983-2.344.48 1.074.826 1.583q.922 1.9.025-.24.38.958.681 1.944c2.775 8.463 14.269 12.851 20.897 5.517 5.641-6.242 16.233-7.605 23.79-3.348 10.375 5.845 17.38 16.093 21.805 26.89 2.672 6.519 8.129 10.397 15.431 8.762 1.361-.305 2.727-.607 4.107-.815-1.224.184 2.242-.173 2.901-.208 3.242-.17 6.515-.101 9.742.271 1.486.171.429.064.126.016.689.11 1.375.24 2.06.375q2.055.405 4.08.944c2.461.655 6.46 2.05 7.505 2.528 11.233 5.136 18.887 12.593 24.853 23.949 6.618 12.598 9.759 27.093 12.925 40.889 3.425 14.924 6.122 29.999 8.332 45.148 8.836 60.597 9.666 122.037 17.572 182.743 4.536 34.833 11.03 69.392 22.276 102.737 2.201 6.526 8.78 10.809 15.692 8.91 6.367-1.75 11.121-9.135 8.91-15.692-20.424-60.56-25.149-124.412-30.178-187.687-2.616-32.918-5.434-65.831-10.34-98.501-2.358-15.703-5.233-31.343-8.846-46.808-3.598-15.403-7.651-31.016-15.166-45.045-15.987-29.843-50.253-45.278-83.219-37.948l15.431 8.762c-7.103-17.408-17.732-35.066-35.67-42.992-17.035-7.526-38.766-6.058-51.8 8.437l20.897 5.517c-11.117-33.617-61.015-40.181-80.181-10.222h21.436c-16.699-27.117-58.278-27.133-76.083-1.389l16.905-4.433c-29.881-21.765-75.687-11.294-94.929 19.522l17.199-4.51c-25.918-14.227-56.25-4.856-77.165 13.841-23.907 21.372-30.999 53.749-32.465 84.519-.78 16.373-.112 32.768-.291 49.15a601 601 0 0 1-2.585 49.422c-3.079 32.87-9.092 65.45-17.642 97.334-9.594 35.776-22.134 70.993-38.981 104.009l20.783-2.678c-24.411-21.288-49.153-42.172-74.02-62.925-22.519-18.794-45.831-37.001-66.705-57.653-11.426-11.305-20.921-22.303-29.237-35.469l-12.14 21.156c41.443-5.319 82.889-10.622 124.334-15.931 5.687-.728 10.549-2.932 12.845-8.64 1.894-4.708 1.518-11.913-2.906-15.354C116 452.166 72.047 403.616 36.925 348.918l-11.926 20.783c59.89 7.397 119.689 15.596 179.523 23.435 4.633.607 9.687-3.051 11.893-6.822 2.665-4.554 2.135-9.325 0-13.904-31.528-67.62-63.052-135.24-94.839-202.739l-15.3 19.903c55.964 17.867 111.873 35.904 167.846 53.743 6.347 2.023 14.77-2.381 16.071-9.125 10.151-52.617 20.771-105.147 30.784-157.79l-21.3 5.623a2842 2842 0 0 1 132.55 119.88c4.506 4.34 13.535 5.43 17.869 0 37.019-46.386 60.096-101.495 67.425-160.37l-23.359 6.327 64.297 141.381c5.221 11.481 11.474 23.365 26.008 23.358 12.791-.006 22.853-9.604 32.078-17.219a951 951 0 0 0 53.421-47.588c19.513-18.745 38.202-38.33 56.065-58.653l-20.479-5.407c15.621 60.647 21.374 123.324 17.318 185.815-.272 4.195 2.508 8.44 6.02 10.495 4.09 2.393 8.155 1.795 12.27 0a97923 97923 0 0 1 136.324-59.32l-16.705-16.705c-22.691 50.011-42.969 101.112-60.518 153.154-4.195 12.44-8.925 24.983-12.099 37.73-3.093 12.42-2.108 26.746 9.655 34.34 10.757 6.945 26.53 4.901 38.728 5.225l43.623 1.16L975 438.149l-8.822-21.298c-52.255 58.804-104.265 117.826-156.566 176.589-6.289 7.066-3.677 17.687 5.449 20.638l113.526 36.719-2.989-22.867c-55.316 29.681-111.73 56.611-169.992 80.042-4.762 1.915-8.113 6.343-6.642 11.698 1.304 4.747 6.81 8.29 11.698 6.642Z"/></svg>