<?xml version="1.0" encoding="UTF-8"?><svg id="Layer_2" xmlns="http://www.w3.org/2000/svg" viewBox="0 0 87.3 83.33"><defs><style>.cls-1{fill:#8bd0e4;}</style></defs><g id="Layer_1-2"><path class="cls-1" d="M53.34,1.88l.39-.57c1.69-2.47,5.56-1.21,5.47,1.78l-.02.69c-.23,8.26,7.91,14.17,15.69,11.4l.65-.23c2.82-1,5.21,2.29,3.38,4.66l-.42.55c-5.04,6.55-1.93,16.11,5.99,18.44l.66.2c2.87.85,2.87,4.91,0,5.76l-.66.2c-7.92,2.33-11.03,11.9-5.99,18.44l.42.55c1.82,2.37-.56,5.66-3.38,4.66l-.65-.23c-7.78-2.77-15.92,3.14-15.69,11.4l.02.69c.08,2.99-3.78,4.25-5.47,1.78l-.39-.57c-4.67-6.81-14.72-6.81-19.39,0l-.39.57c-1.69,2.47-5.56,1.21-5.47-1.78l.02-.69c.23-8.26-7.91-14.17-15.69-11.4l-.65.23c-2.82,1-5.21-2.29-3.38-4.66l.42-.55c5.04-6.55,1.93-16.11-5.99-18.44l-.66-.2c-2.87-.85-2.87-4.91,0-5.76l.66-.2c7.92-2.33,11.03-11.9,5.99-18.44l-.42-.55c-1.82-2.37.56-5.66,3.38-4.66l.65.23c7.78,2.77,15.92-3.14,15.69-11.4l-.02-.69c-.08-2.99,3.78-4.25,5.47-1.78l.39.57c4.67,6.81,14.72,6.81,19.39,0Z"/></g></svg>