<?xml version="1.0" encoding="UTF-8"?><svg id="Layer_2" xmlns="http://www.w3.org/2000/svg" viewBox="0 0 95.84 95.84"><defs><style>.cls-1{fill:#ddd;}</style></defs><g id="Layer_1-2"><path class="cls-1" d="M79.07,37.56l15.73,8.6c1.39.76,1.39,2.75,0,3.51l-15.73,8.6c-8.78,4.8-15.99,12.01-20.79,20.79l-8.6,15.73c-.76,1.39-2.75,1.39-3.51,0l-8.6-15.73c-4.8-8.78-12.01-15.99-20.79-20.79L1.04,49.67c-1.39-.76-1.39-2.75,0-3.51l15.73-8.6c8.78-4.8,15.99-12.01,20.79-20.79L46.16,1.04c.76-1.39,2.75-1.39,3.51,0l8.6,15.73c4.8,8.78,12.01,15.99,20.79,20.79Z"/></g></svg>