<?xml version="1.0" encoding="UTF-8"?><svg id="Layer_2" xmlns="http://www.w3.org/2000/svg" viewBox="0 0 86.91 76.04"><defs><style>.cls-1{fill:#f5db78;}</style></defs><g id="Layer_1-2"><path class="cls-1" d="M62.1.55h0c1.98-1.45,4.74.14,4.48,2.59h0c-1.49,13.68,6.06,26.74,18.64,32.29h0c2.25.99,2.25,4.18,0,5.17h0c-12.59,5.55-20.13,18.62-18.64,32.29h0c.27,2.44-2.5,4.04-4.48,2.59h0c-11.1-8.13-26.19-8.13-37.29,0h0c-1.98,1.45-4.74-.14-4.48-2.59h0c1.49-13.68-6.06-26.74-18.64-32.29h0c-2.25-.99-2.25-4.18,0-5.17h0C14.28,29.88,21.82,16.82,20.33,3.14h0c-.27-2.44,2.5-4.04,4.48-2.59h0c11.1,8.13,26.19,8.13,37.29,0Z"/></g></svg>