<?xml version="1.0" encoding="UTF-8"?><svg id="Layer_2" xmlns="http://www.w3.org/2000/svg" viewBox="0 0 96.47 84.09"><defs><style>.cls-1{fill:#f5db78;}</style></defs><g id="Layer_1-2"><path class="cls-1" d="M58.32,9.07L70.17.39c1.4-1.03,3.36.1,3.17,1.83l-1.59,14.61c-.8,7.39,3.27,14.46,10.08,17.46l13.45,5.93c1.59.7,1.59,2.96,0,3.66l-13.45,5.93c-6.81,3-10.88,10.06-10.08,17.46l1.59,14.61c.19,1.73-1.77,2.86-3.17,1.83l-11.86-8.68c-6-4.39-14.16-4.39-20.16,0l-11.86,8.68c-1.4,1.03-3.36-.1-3.17-1.83l1.59-14.61c.8-7.39-3.27-14.46-10.08-17.46l-13.45-5.93c-1.59-.7-1.59-2.96,0-3.66l13.45-5.93c6.81-3,10.88-10.06,10.08-17.46l-1.59-14.61c-.19-1.73,1.77-2.86,3.17-1.83l11.86,8.68c6,4.39,14.16,4.39,20.16,0Z"/></g></svg>