<?xml version="1.0" encoding="UTF-8"?><svg id="Layer_2" xmlns="http://www.w3.org/2000/svg" viewBox="0 0 86.91 86.91"><defs><style>.cls-1{fill:#b8c73f;}</style></defs><g id="Layer_1-2"><path class="cls-1" d="M40.63,1.99h0c.95-2.66,4.71-2.66,5.65,0h0c3.55,9.97,14.93,14.69,24.49,10.14h0c2.55-1.21,5.21,1.45,4,4h0c-4.54,9.56.17,20.95,10.14,24.49h0c2.66.95,2.66,4.71,0,5.65h0c-9.97,3.55-14.69,14.93-10.14,24.49h0c1.21,2.55-1.45,5.21-4,4h0c-9.56-4.54-20.95.17-24.49,10.14h0c-.95,2.66-4.71,2.66-5.65,0h0c-3.55-9.97-14.93-14.69-24.49-10.14h0c-2.55,1.21-5.21-1.45-4-4h0c4.54-9.56-.17-20.95-10.14-24.49h0c-2.66-.95-2.66-4.71,0-5.65h0c9.97-3.55,14.69-14.93,10.14-24.49h0c-1.21-2.55,1.45-5.21,4-4h0c9.56,4.54,20.95-.17,24.49-10.14Z"/></g></svg>