<?xml version="1.0" encoding="UTF-8"?><svg id="Layer_2" xmlns="http://www.w3.org/2000/svg" viewBox="0 0 96.03 96.03"><defs><style>.cls-1{fill:#b8c73f;}</style></defs><g id="Layer_1-2"><path class="cls-1" d="M42.1,12.67l4.03-11.34c.63-1.77,3.14-1.77,3.77,0l4.03,11.34c2.16,6.06,9.08,8.93,14.9,6.17l10.87-5.17c1.7-.81,3.47.97,2.66,2.66l-5.17,10.87c-2.76,5.81.11,12.74,6.17,14.9l11.34,4.03c1.77.63,1.77,3.14,0,3.77l-11.34,4.03c-6.06,2.16-8.93,9.08-6.17,14.9l5.17,10.87c.81,1.7-.97,3.47-2.66,2.66l-10.87-5.17c-5.81-2.76-12.74.11-14.9,6.17l-4.03,11.34c-.63,1.77-3.14,1.77-3.77,0l-4.03-11.34c-2.16-6.06-9.08-8.93-14.9-6.17l-10.87,5.17c-1.7.81-3.47-.97-2.66-2.66l5.17-10.87c2.76-5.81-.11-12.74-6.17-14.9l-11.34-4.03c-1.77-.63-1.77-3.14,0-3.77l11.34-4.03c6.06-2.16,8.93-9.08,6.17-14.9l-5.17-10.87c-.81-1.7.97-3.47,2.66-2.66l10.87,5.17c5.81,2.76,12.74-.11,14.9-6.17Z"/></g></svg>