<?xml version="1.0" encoding="UTF-8"?><svg id="Layer_2" xmlns="http://www.w3.org/2000/svg" viewBox="0 0 96.43 91.92"><defs><style>.cls-1{fill:#8bd0e4;}</style></defs><g id="Layer_1-2"><path class="cls-1" d="M54.22,10.55L60.85.87c1.13-1.65,3.7-.81,3.65,1.19l-.32,11.73c-.14,5.11,4.89,8.77,9.71,7.06l11.05-3.93c1.88-.67,3.47,1.52,2.26,3.1l-7.15,9.3c-3.12,4.05-1.2,9.97,3.71,11.42l11.25,3.31c1.91.56,1.91,3.27,0,3.84l-11.25,3.31c-4.9,1.44-6.83,7.37-3.71,11.42l7.15,9.3c1.22,1.58-.38,3.77-2.26,3.1l-11.05-3.93c-4.82-1.71-9.85,1.94-9.71,7.06l.32,11.73c.06,1.99-2.52,2.83-3.65,1.19l-6.63-9.68c-2.89-4.22-9.11-4.22-12,0l-6.63,9.68c-1.13,1.65-3.7.81-3.65-1.19l.32-11.73c.14-5.11-4.89-8.77-9.71-7.06l-11.05,3.93c-1.88.67-3.47-1.52-2.26-3.1l7.15-9.3c3.12-4.05,1.2-9.97-3.71-11.42l-11.25-3.31c-1.91-.56-1.91-3.27,0-3.84l11.25-3.31c4.9-1.44,6.83-7.37,3.71-11.42l-7.15-9.3c-1.22-1.58.38-3.77,2.26-3.1l11.05,3.93c4.82,1.71,9.85-1.94,9.71-7.06l-.32-11.73c-.06-1.99,2.52-2.83,3.65-1.19l6.63,9.68c2.89,4.22,9.11,4.22,12,0Z"/></g></svg>