<?xml version="1.0" encoding="UTF-8"?>
<svg xmlns="http://www.w3.org/2000/svg" version="1.1" viewBox="0 0 180 180">
  <defs>
    <style>
      .cls-1 {
        fill: #74d2e7;
      }
    </style>
  </defs>
  <!-- Generator: Adobe Illustrator 28.7.1, SVG Export Plug-In . SVG Version: 1.2.0 Build 142)  -->
  <g>
    <g id="Layer_1">
      <g>
        <path class="cls-1" d="M166.4,51c-4.4-12.9-12.6-24.4-24-31.9-6.7-4.4-14.2-7.1-21.9-8.7-10.4-2.2-21.3-2.8-31.9-1.5-5.2.6-10.2,1.8-15.3,3.1-1.8.5-1,3.2.8,2.8,5.1-1.3,10.2-1.9,15.4-2.3,5.1-.5,10.2-.6,15.4-.3,9.2.5,18.7,2,27.2,5.6,12.1,5.1,21.7,14.6,27.5,26.2,5.8,11.5,7.9,24.6,6.7,37.4-1.2,12.8-5.9,25.1-14.1,35-2.3,2.8-4.8,5.8-6.2,9.2,0,0-.1-.1-.2-.2-2.2-1.7-5.7-1.4-8.4-1.4-5.9,0-11.5,1.3-17,3.1-1.1-2.8-2-5.8-2.6-8.8,4.6-3.1,8.7-7.2,11.9-11.6,4.1-5.6,7.1-13.7,2.5-19.9-3.5-4.7-10.1-5.1-14-.6-2.6,2.9-3.6,6.8-4.1,10.6-.5,3.9-.7,7.9-.5,11.8.1,2.9.4,5.7.9,8.5-3.7,2.3-7.8,3.8-12,4.4-.7-1-1.5-1.9-2.3-2.8-5.2-5.8-12-10.2-19.9-11.5-3.3-.5-7.1-.8-9.9,1.1-2.9,1.9-3.2,5.4-1.1,8.1,2.3,2.9,6.2,4.6,9.6,5.7,3.8,1.2,7.8,1.6,11.7,2.1,3.6.4,7.3.7,11,.4,1.9,2.6,3.7,5.4,5.2,8.3-1.7.9-3.3,1.8-4.9,2.9-4.2,2.8-8.2,6.1-11.1,10.2-1.2,1.7-2.3,3.7-2.3,5.9,0,0,0,0,0,0-4.2-1.3-8.7-1.6-12.9-2-8.4-.8-16.6-2.8-24.5-5.9-17.4-7-31.2-21.5-35.7-39.9-4-16.5-1.2-34.2,6.8-49.1,7.7-14.3,19.7-26.2,34-33.7,3.4-1.8,6.8-3.3,10.4-4.6,1.5-.5.9-2.8-.6-2.3h0c-16,4.9-29.9,15.1-40.1,28.3-10.6,13.8-16.6,31-15.9,48.4.8,18.8,10.2,36.5,25.4,47.7,8.3,6.1,18.2,10,28.1,12.5,3.7.9,7.5,1.5,11.3,1.9,3.6.4,7.1.7,10.6,1.5,3.1.7,6.4,1.8,8.7,4.1,1.2,1.2,2.1,2.6,2.7,4.2.8,2.3,1.6,4.5,3.7,6.1,1.9,1.4,4.2,2,6.5,2.3,2.6.4,5.2.5,7.8.4,5.3-.2,10.6-1.3,15.5-3.2,8.2-3.1,16.9-8.2,20.9-16.3.9-1.9,1.7-3.9,1.6-6.1,0-1.9-.6-3.7-1.4-5.4-1.5-3.6-3.8-6.9-3.1-11,.7-4.7,4.1-8.4,7-11.9,2.1-2.6,4-5.3,5.7-8.2,3.4-5.8,5.8-12.2,7.3-18.7,3-13.2,2.4-27.2-2-40ZM117.2,94.7c.6-3,1.9-6.4,4.6-8.1,1.7-1.1,3.8-1.2,5.6-.3,2.2,1.2,3.5,3.4,4,5.7.7,3.5-.5,7-2.2,10-2.9,5.1-7.3,9.6-12.1,13.1-1.1-6.6-1.3-13.8,0-20.4ZM97,121.7c-3.3,0-6.7-.5-10-1-3.5-.5-7-1.1-10.2-2.6-2-.9-7.3-3.4-6-6.3,1-2.2,4.6-2.2,6.5-2.1,8,.5,15,4.6,20.4,10.3.5.5,1,1.1,1.5,1.7-.8,0-1.5,0-2.3,0ZM104.3,124c2.9-.6,5.7-1.5,8.3-2.8.8-.4,1.6-.8,2.4-1.3.6,2.7,1.5,5.4,2.5,8.1-3,1.1-5.9,2.3-8.7,3.7-1.4-2.6-2.8-5.2-4.5-7.6ZM91.1,151c.4-1.5,1.4-3,2.3-4.2,2.6-3.4,6.1-6.2,9.7-8.6,1.6-1.1,3.3-2,4.9-3,1,2,2,4,2.9,5.9.6,1.2,2.4.2,1.8-1.1h0c-.9-2-1.8-4-2.8-5.9,2.2-1.1,4.5-2.1,6.8-2.9.6-.2,1.2-.4,1.7-.6.1.3.2.6.4.9.8,1.8,1.8,3.5,2.8,5.2,1,1.6,3.6.1,2.6-1.5-1.1-1.8-2-3.6-2.9-5.5,3.8-1.1,7.7-2,11.5-2.3,3-.3,6.1-.4,9.1.2,1.3.2,1.9.6,2.2,1.9,0,.3.2.6.2.9,0,.3,0,.6-.2.9-.5,1.6-1.6,3-2.7,4.2-2.7,3.1-5.9,6-9.2,8.5-7.1,5.4-15.9,8.7-24.8,9.8-4.5.6-9.4.7-14,0-.7-.4-1.4-.8-2.2-1.1-.4-.5-.5-1.1-.3-1.9ZM148.5,149.4c-1.6,3.9-4.6,7.1-8,9.5-7.5,5.6-17.1,8.9-26.4,9.1-2.5,0-5,0-7.4-.5-2.1-.4-4.2-1-5.3-3-1-1.8-1.4-3.9-2.5-5.7-.7-1.2-1.6-2.2-2.6-3.1,3.5.4,6.9.4,10.5,0,4.9-.5,9.8-1.7,14.4-3.5,8.7-3.3,17.6-8.5,23.4-15.9.2-.3.5-.6.7-.9.4,1.4,1,2.8,1.6,4.2,1.5,3.1,2.9,6,1.5,9.5Z"/>
        <path class="cls-1" d="M71,41.8s0,0,0,0c0,0,0,0,0,0,1.9,8.3,3.4,17.2,2,25.7-1.2,7.8-5,14.7-10.3,20.6-1.9,2.1-4.3,4.5-7.1,5.6-.9.2-1.8.4-2.7.6-1.9.5-1.6,3.8.5,3.6.9,0,1.9-.3,2.7-.6,5.9-1.2,12-1.4,17.9-.7,6.7.8,13.9,2.8,20.1,5.9,3.5,1.8,6.8,4,9.6,6.8.3.3.6.3.9.3.9,1.2,3.1.3,2.8-1.5-.6-3.7-1.3-7.5-1.4-11.3,0-3.7.5-7.2,1.8-10.6,2.4-6.3,6.7-11.9,11.4-16.7,2.6-2.6,5.4-5,8.5-7,1.6-1,.6-3.9-1.4-3.2-7.5,2.4-15.7,3.4-23.5,2-8-1.4-15.2-5.3-20.7-11.2-1.7-1.9-3.1-4-4.7-5.9-.6-.7-1.2-1.3-1.9-1.9-.3-.3-.6-.6-1-.9-.2-.2-.6-.7-.5-.4-.7-2-3.7-1.2-3.2.9,0,0,0,0,0,0ZM78.2,50.6c2.9,3.5,6.4,6.5,10.2,8.9,7.3,4.5,16,6.3,24.5,5.9,2.1-.1,4.2-.3,6.3-.7-3.3,3-6.2,6.3-8.8,9.9-4.2,5.9-7.7,13-7.9,20.6-.1,3.8.4,7.6,1.2,11.3-10.6-9.6-24.5-14.3-38.8-13.8-.6,0-1.1,0-1.7.1,0,0,0,0,.1-.1,2.8-2.7,5.2-5.9,7.3-9.2,5.1-7.9,6.6-17.5,6-26.8-.2-3.3-.6-6.5-1.2-9.7.9,1.1,1.7,2.5,2.7,3.6Z"/>
        <path class="cls-1" d="M143.2,69.4c-.2,0-.2.4,0,.4s.2-.4,0-.4Z"/>
      </g>
    </g>
  </g>
</svg>