<?xml version="1.0" encoding="UTF-8"?>
<svg xmlns="http://www.w3.org/2000/svg" version="1.1" viewBox="0 0 1000 1000">
  <defs>
    <style>
      .cls-1 {
        fill: #fff;
      }

      .cls-2 {
        fill: #74d2e7;
      }
    </style>
  </defs>
  <!-- Generator: Adobe Illustrator 28.7.1, SVG Export Plug-In . SVG Version: 1.2.0 Build 142)  -->
  <g>
    <g id="Layer_1">
      <ellipse class="cls-1" cx="615.9" cy="448" rx="289.2" ry="256.8" transform="translate(3.1 900.2) rotate(-72.5)"/>
      <g>
        <path class="cls-2" d="M686.2,706s0,0,0,0c0,0,0,0,0,0h0Z"/>
        <path class="cls-2" d="M333.8,591.3c-.2-1.5-.2-.9,0,0h0Z"/>
        <path class="cls-2" d="M366.1,351.8c-4.4,12.4-8.1,25.1-11.1,37.9-5.4,23.7-8.1,48.2-8.3,72.5-.2,24.3,2.2,48.5,7.1,72.2,4.9,23.4,12.5,46.1,22.6,67.8,10.2,21.7,23.2,42,38.6,60.3,15.8,18.8,34.4,35.3,54.8,49,26.3,17.6,55.9,29.9,87.2,34.7,33.9,5.2,68.4,3.1,101.5-5.6,32.1-8.5,62.4-23.1,89.7-41.9,27.8-19.2,53-42.1,74.5-68.1,21-25.3,38.7-53.1,51.4-83.4,10.5-25.1,16.9-51.6,19.9-78.7,3.1-27.4,2-55-2.2-82.2-4.3-27.4-12.5-54-23.9-79.3-11.5-25.6-26.7-49.3-44.9-70.7-19-22.3-41.7-42-66.8-57.1-29.2-17.5-62.1-27.7-96-30.9-34.1-3.1-68.8,1.6-101.4,11.9-17.3,5.5-33.5,13-49.7,21.1-5.2,2.6-7,10.3-3.9,15.1,3.4,5.3,9.5,6.7,15.1,3.9,4-2,8.1-3.7,12.2-5.5-2.1.9.5-.2,1.2-.5,3-1.2,6.1-2.4,9.2-3.6,8.2-3.1,16.5-6,24.9-8.5,8-2.4,16.2-4.4,24.4-6.1,4-.8,8.1-1.5,12.2-2.2,1-.2,2-.3,3-.4,0,0,.1,0,.2,0,.1,0,.3,0,.5,0,2-.3,4-.5,6.1-.7,16-1.7,32.2-1.9,48.2-.2,1.8.2,3.6.4,5.4.6.2,0,.3,0,.4,0,0,0,0,0,.1,0,1.1.2,2.2.3,3.3.5,3.9.6,7.7,1.3,11.5,2.2,7.7,1.6,15.2,3.7,22.6,6.2,3.7,1.2,7.4,2.6,11.1,4,.9.3,1.7.7,2.6,1.1.3.1.5.2.8.3,9.3,4,18.3,8.7,26.9,14.1,6.4,3.9,12.6,8.2,18.5,12.8.3.2.6.5.9.7.4.3.9.7,1.3,1,4.1,3.3,8.1,6.6,12.1,10.1,10.1,9,19.5,18.7,28.1,29,2.1,2.5,4,5,6,7.5l.4.5c1.5,2,3,4,4.4,6,3.9,5.5,7.7,11.1,11.2,16.9,6.9,11.3,13,23,18.3,35.1.3.8.7,1.5,1,2.3,0,0,0,0,0,0,0,0,0,0,0,0,4.5,10.7,8.3,21.7,11.5,32.8,3.8,13.4,6.7,27,8.6,40.7,0,0,0,0,0,0,1.5,11.4,2.3,22.8,2.5,34.3.2,13.8-.6,27.5-2.3,41.2,0,0,0,0,0,0-.3,1.7-.5,3.3-.7,5-1.5,9.5-3.5,19-6,28.3-1.7,6.2-3.5,12.4-5.6,18.4-1.6,4.6-3.3,9.1-5.1,13.5-.2.6-.5,1.2-.7,1.8-.1.2-.2.5-.3.7-5.8,13.5-12.8,26.4-20.6,38.9-4.3,6.9-8.9,13.6-13.7,20.1-1.1,1.5-2.2,3-3.3,4.5l-.6.7h0s-.2.3-.2.3c-1.2,1.6-.1.1.2-.3-.8.8-1.4,1.8-2.1,2.6-2.5,3.2-5,6.3-7.7,9.3-10.4,12.3-21.7,23.9-33.7,34.8-6.1,5.5-12.3,10.8-18.7,15.8-.1.1-.6.4-.9.7-.4.3-1.5,1.1-1.7,1.3-1.7,1.3-3.4,2.6-5.1,3.8-3.2,2.3-6.4,4.6-9.7,6.8-13.2,8.9-27,16.9-41.4,23.5-1.7.8-3.4,1.5-5.1,2.3l-.7.3s0,0,0,0c0,0,0,0,0,0l-.4.2c-1.8.8-.1,0,.4-.2-1,.3-2.1.9-3.1,1.3-3.7,1.5-7.4,2.9-11.2,4.2-7.5,2.6-15.2,4.9-22.9,6.9s-15.5,3.5-23.4,4.7c-.3,0-2.1.3-2.3.3-.4,0-.8.1-1.2.2-2,.2-3.9.5-5.9.6-4.1.4-8.2.7-12.3.9-7.9.3-15.8.3-23.7-.2-3.9-.2-7.9-.6-11.8-1-.9-.1-2,0-2.9-.4,0,0,2.5.3,1.1.1-.6,0-1.1-.2-1.7-.2-2-.3-3.9-.6-5.8-.9-7.9-1.4-15.8-3.3-23.5-5.6-5.6-1.7-11.1-3.6-16.5-5.8-.5-.2-1-.4-1.5-.6,0,0-.1,0-.4-.2-.7-.3-1.3-.6-2-.9-12.5-5.6-24.4-12.5-35.7-20.3-2.4-1.7-4.8-3.4-7.2-5.2-1-.7-1.9-1.5-2.9-2.2-.1-.1-.3-.2-.4-.3-5.2-4.1-10.2-8.4-15.1-12.9-9.4-8.7-18.1-18.2-26.1-28.2-.4-.5-.8-1-1.1-1.4,0,0,0-.1-.2-.2-1.7-2.2-3.4-4.5-5-6.8-3.3-4.6-6.4-9.3-9.3-14.1-6-9.7-11.3-19.7-16-30-.8-1.8-1.6-3.7-2.4-5.5v-.2c-1.1-2.5-2.1-5-3.1-7.5-2-5.3-3.9-10.6-5.6-15.9-3.5-10.9-6.3-21.9-8.5-33.1-1.1-5.6-2.1-11.2-2.9-16.8,0-.5-.2-1.1-.2-1.6,0,0,0,0,0,0-.2-1.4-.4-2.8-.5-4.2-.3-2.8-.6-5.7-.9-8.5-2-23-1.7-46.1,1-69,.2-1.3.3-2.6.5-3.9.1-.7.2-1.4.3-2.1.4-2.8.9-5.7,1.3-8.5,1-5.6,2-11.3,3.2-16.9,2.4-11.3,5.4-22.5,9-33.4,1.8-5.4,3.6-10.8,5.6-16.2,1-2.7,2-5.3,3.1-7.9l.8-1.9c5.1-11.9,11-23.4,17.6-34.5,5.8-9.8,12.1-19.2,19-28.3.3-.4.6-.8.9-1.1.2-.2.4-.5.5-.7.9-1.1,1.8-2.2,2.7-3.3,1.9-2.3,3.7-4.6,5.7-6.8,3.7-4.3,7.6-8.5,11.5-12.6,7.8-8,16-15.4,24.7-22.4,3.5-2.8,3.2-8.7.7-12-2.5-3.3-8.1-5.1-11.8-2.4h0c-19.2,14.5-36.5,31.1-51.5,50-2.2,2.8-4.4,5.7-6.6,8.6-.4.6-.8,1.1-1.3,1.7-.8,1.1-.7,1,.2-.1-1.4,1.7-2.6,3.5-3.9,5.3-3.4,4.8-6.6,9.8-9.6,14.8-6.1,10-11.6,20.3-16.5,30.9-1.2,2.6-2.4,5.2-3.5,7.8l-.8,2c-.5,1.1-.9,2.1-1.3,3.2-.5,1.1.6-1.3.5-1.2-1,2-1.8,4.2-2.7,6.3-1.1,2.7-2.3,5.5-3.3,8.3-.1.4-.6,1.4.1-.2,1-2.3-.5,1.1-.9,2.2-.2.7-.5,1.3-.7,2Z"/>
        <path class="cls-2" d="M953.5,740.9c-10.3-5.4-21.4-8.8-32.6-12-12.9-3.8-26.1-6.9-39.3-9.5-13.9-2.7-27.9-4.8-41.9-6.3-1.3-.1-2.5-.2-3.8-.3,7.3-7.3,14.4-15,21.1-22.9,51.6-61.4,84.2-137.4,92.7-217.1,8.9-83.3-11.3-170.1-63.1-236.8-6.8-8.8-14.1-17-21.8-25-10.8-11.2-27.9,5.9-17.1,17.1,29.1,30.1,51,67.4,63.7,107,5.7,17.7,9.8,35.9,12.4,54.4,0,.3,0,.4,0,.5,0,.2,0,.4,0,.7.2,1.3.3,2.6.5,3.9.2,2.2.5,4.3.7,6.5.5,4.8.8,9.5,1.1,14.3.5,9.1.6,18.3.4,27.4-.2,9.6-.9,19.2-1.9,28.7-.3,2.8-.6,5.6-1,8.4,0,.4-.3,2.5-.3,2.5-.7,4.7-1.5,9.5-2.3,14.2-3.4,18.5-8.2,36.7-14.3,54.5-11.6,33.9-28.3,66.7-49.9,97.2-10.2,14.4-21.4,28-34.7,41.8-6.3,6.6-12.9,12.9-19.8,19-3.4,3-6.9,6-10.4,8.9-2.3,1.9-4.5,3.7-6.9,5.5-.5.4-2.4,1.8-2.7,2-13.9,10.4-28.7,19.5-44,27.5-16.7,8.7-29.6,14.1-47.7,20-17.1,5.6-34.7,9.9-52.5,12.8-7.7,1.2-14.3,2.1-24,2.8-9.1.7-18.3,1-27.5.9-8.7,0-17.4-.5-26.1-1.4-3.2-.3-6.4-.7-9.6-1.1-.1,0-.3,0-.5,0-4.5-.7-9-1.4-13.4-2.3-17.1-3.3-33.9-8.3-50.1-14.9-.5-.2-2-.8-2.1-.9-.8-.3-1.5-.7-2.3-1-6.2-2.8-12.3-5.8-18.2-9.2-7.8-4.3-15.4-9.1-22.7-14.3-1.7-1.2-3.4-2.5-5.1-3.7-.2-.1-.3-.2-.5-.3,0,0-.2-.2-.4-.3-.8-.7-1.7-1.3-2.5-2-3.7-2.9-7.2-5.9-10.7-9.1-2.4-2.2-4.6-4.4-6.9-6.7-8.4-8.5-16.6-17.3-24.4-26.3-2.1-2.5-4.2-5-6.3-7.5-.8-1-1.6-2-2.4-3,0,0-1.9-2.5-2.3-3.1-2.7-3.7-5.1-7.6-7.3-11.6,1.3-4,.5-8.8-2-11.9-3.5-4.4-11.1-7-16.1-3.2-39.4,29.4-80.3,56.8-120.8,84.6-8.4,5.8-16.8,11.5-25.2,17.3-.2-1.2-.4-2.4-.6-3.7-1.1-6.2-3-12.2-4.7-18.2-3.5-11.7-8.3-22.9-15.6-32.7-.9-1.3-1.9-2.5-2.9-3.7,43.8-26.4,87.5-52.9,131.2-79.5,4.4-2.7,8.8-5.4,13.2-8.1,4.7-2.9,7.7-9.1,5.9-14.5-.5-1.6-1-3.3-1.5-4.9,0-.3-.2-.6-.2-.9,0,.6.2,1.4.3,2.6-.2-2-.4-3.7-1.1-5.6-2.8-8.1-5.9-16.1-8.5-24.3-5.3-16.6-9.5-33.5-12.6-50.7-3.1-17.2-4.9-33.2-5.7-51.3-.7-17.3-.3-34.6,1.4-51.9,1.6-16.5,4.7-33.6,9.1-50.7,4.2-16.2,10-33.4,16.4-48,6.8-15.5,14.8-30.4,23.9-44.6,4.4-6.8,9.1-13.5,14-19.9.2-.3,1.6-2,1.9-2.5,2.1-2.7,4.3-5.3,6.5-7.9,8.8-10.4,18.3-20.3,28.3-29.5,6.1-5.7,12.5-11.1,19-16.3.4-.3,2.1-1.7,2.4-1.9,2.6-2,5.1-3.9,7.7-5.8,22-16,45.9-29.3,70.9-40,0,0,0,0,.1,0,0,0,0,0,.1,0,.7-.3,1.4-.6,2.1-.9,1.6-.6,3.2-1.3,4.8-1.9,3.2-1.2,6.4-2.5,9.6-3.6,6.4-2.3,12.9-4.4,19.5-6.4,12.9-3.8,25.9-6.9,39.1-9.3,3.2-.6,6.3-1.1,9.5-1.5.5,0,2.5-.4,3-.4,8.4-1.1,16.8-1.9,25.2-2.3,13.3-.7,26.5-.8,39.8,0,6.4.4,12.8,1,19.1,1.9.3,0,.6,0,.7,0,.9.1,1.8.3,2.8.4,5,.8,9.9,1.6,14.9,2.6,13,2.7,25.7,6.3,38.3,10.5,13.1,4.3,23.5,8.8,35.6,15.2,11.9,6.3,23.5,13.5,34.1,21.7,5.3,4.1,10.5,8.5,15.5,13.1,8.2,7.4,20.3-4.7,12.1-12.1h0c-21.1-19.2-44.9-35.7-70.6-48-13.8-6.6-25.7-11.8-39.9-16.1-12.8-3.9-25.9-6.9-39.2-8.9-55.7-8.7-112.9-2.6-166.1,16.1-53.6,18.8-103.1,49.7-142.6,90.6-46.3,48-77.1,109.7-88.9,175.3-6.5,36.2-7.9,73.3-3.9,109.9,2,18.7,5.2,37.2,9.6,55.5,4.2,17.2,10,33.7,15.7,50.4-41.7,25.3-83.6,50.1-125.5,75.1-23.6,14.1-47.2,28.2-70.8,42.4-21.2,12.8-43,25-63.4,38.9-13.5,9.2-28.4,20.6-34.4,36.3-5.8,15,1.2,30.4,7.1,44.1,5.5,12.6,13.9,24.4,25.7,31.8,2.9,1.8,5.9,3.2,9,4.2,1.4,1.9,3.6,3.4,6.4,4,108.7,22.9,219.7,33.5,330.7,35.9,111,2.4,222.3-1.6,332.7-14.1,49.5-5.6,99.4-11.5,147.4-25.5,23.8-6.9,47.1-15.9,69.1-27.6,21-11.1,45.4-26.5,46.1-53.1.5-21.2-17.3-37.5-34.6-46.5ZM63.4,842.4c.6.2.6.3,0,0h0ZM370.2,675.2c0,0,.1-.1.2-.2-1,1.3-1,.8-.2.2ZM355.5,690.5c7.6,11.6,16.7,22.3,25.9,32.7,6.5,7.3,13.2,14.3,20.1,20.9-.1,0-.2.1-.4.2-22.2-2.6-44.8-4.2-67.1-3.8-20.8.4-41.6,2-62.2,4.6,27.4-19,54.7-38.1,81.7-57.6.6,1.1,1.3,2.1,1.9,3ZM88.1,757.8c9.9-6,19.8-12,29.6-17.9,16.5-10,33.1-19.9,49.6-29.9,3.9,5.4,7.4,11,10.1,17.2,2.2,5.5,3.8,11.1,5.4,16.8,1.7,5.8,3.3,11.7,4.3,17.7.2,1.9.3,3.8.3,5.6,0,1.8-.2,3.6-.3,5.4-5.7,4-11.4,7.9-17.1,11.9-19.5,13.7-38.5,28.3-58.3,41.6-1.9,1.3-3.9,2.6-5.9,3.8-.5-2.7-1.2-5.4-2.1-8-1.6-4.8-3.4-9.5-5.3-14.1-4-9.6-8.3-19.3-13.9-28.1-3.2-5-7-9.6-12.2-12.5,0,0,0,0,0,0,5.2-3.2,10.5-6.3,15.7-9.5ZM50.9,831.1c-.9-1.4-1.8-2.8-2.6-4.3-1.2-2.1-3-5.8-3.7-7.3,0-.2-.6-1.4-.6-1.4-.4-.9-.8-1.9-1.1-2.8-.6-1.6-1.2-3.1-1.8-4.7-1-2.8-1.9-5.5-2.5-8.4.1.4-.2-1.8-.2-2.6,0-.2,0-.8,0-1.2,0-.2,0-.3,0-.4.2-.6.4-1.3.6-1.9,0,0,0,0,0-.2.7-1.3,2-3.4,2.5-4.1,1.7-2.2,4.4-4.9,7-7.4.3-.2.7-.3,1-.5,1.7-.6,3.4-1.1,5.2-1.4,1.1,0,2.1,0,3.2,0,1.1.2,2.1.5,3.2.9.7.4,1.4.7,2,1.2.7.7,1.4,1.4,2.1,2.1,2.7,3.9,4.8,8.2,6.9,12.5,2.1,4.3,4.2,8.7,6.1,13.1,1.5,3.7,3,7.4,4.3,11.2,1.3,3.7,2.5,7.4,3.2,11.2.1,1.5.2,3.1,0,4.6,0,.4-.2.7-.3,1.1-.7.2-1.3.5-2,.7-2.4.8-4.9,1.5-7.3,2,0,0-2.1.4-2.7.6-.3,0-.5,0-.6,0-.8,0-1.6,0-2.4,0-.6,0-2.4-.2-3-.2-.7-.2-2.2-.5-2.6-.7-.6-.2-1.2-.4-1.8-.6,0,0-.2,0-.3-.1-1.1-.7-2.3-1.3-3.4-2-.2,0-.7-.5-1.1-.7-.2-.1-.3-.2-.3-.3-2.1-2-4.2-4-6.1-6.3-.1-.2-1-1.5-1.3-1.8Z"/>
      </g>
    </g>
  </g>
</svg>