<?xml version="1.0" encoding="UTF-8"?><svg id="Layer_1" xmlns="http://www.w3.org/2000/svg" viewBox="0 0 297.76 68.56"><defs><style>.cls-1{fill:#111921;}</style></defs><path class="cls-1" d="M5.2,36.32C2.08,33.68.16,31.04.16,26.88v-4.4C.16,15.28,4.32,11.36,11.04,11.36s10.24,4.08,10.24,10.56v7.84h-8.24v-8c0-2.32-.48-4-2-4s-1.92,1.68-1.92,4v3.84c0,2.48,1.28,3.6,3.28,5.52l4.16,3.6c3.04,2.48,4.96,5.2,4.96,9.68v4.56c0,7.2-4.24,10.88-11.04,10.88S0,55.76,0,49.28v-8.24h8.32v8.48c0,2.32.64,3.92,2.16,3.92s2-1.6,2-3.92v-4.48c0-2.08-.96-3.44-3.12-5.36l-4.16-3.36Z"/><path class="cls-1" d="M32.96,59.2h-9.12V0h9.12v18.56c.72-4.4,3.04-7.2,7.04-7.2,4.24,0,6.4,3.52,6.4,7.68v40.16h-9.12V20.88c0-1.76-.64-3.04-2.08-3.04-1.36,0-2.24,1.28-2.24,3.04v38.32Z"/><path class="cls-1" d="M49.12,44.88c0-5.52,2-7.68,6.48-10.8,4.88-3.44,6.64-4.24,6.64-12,0-2.64-.24-4.4-2-4.4s-2,1.6-2,4.4v7.68h-8.48v-7.92c0-6.72,4.08-10.48,10.64-10.48,8.8,0,10.64,5.68,10.64,11.52v36.32h-3.6c-3.04,0-5.04-1.52-5.04-5.76v-1.2c-.4,5.2-3.12,7.36-6.72,7.36-4.24,0-6.56-3.2-6.56-8.24v-6.48ZM58,49.36c0,2.8.32,4.32,2.08,4.32,1.52,0,2.24-1.84,2.24-4.16v-15.76c-.64,1.28-1.68,2.16-2.8,3.68-1.52,2.16-1.52,4.48-1.52,7.28v4.64Z"/><path class="cls-1" d="M80.56,11.36c4,0,6.32,2.88,7.04,7.2V0h9.12v59.2h-9.12v-6.56c-.72,4.4-3.04,7.2-7.04,7.2-4.24,0-6.4-3.52-6.4-7.68V19.04c0-4.16,2.16-7.68,6.4-7.68ZM87.6,20.96c0-1.84-.88-3.04-2.24-3.04-1.44,0-2.08,1.2-2.08,3.04v29.36c0,1.76.64,3.04,2.08,3.04,1.36,0,2.24-1.28,2.24-3.04v-29.36Z"/><path class="cls-1" d="M122.16,48.48c0,7.2-4.24,11.36-11.2,11.36s-11.2-4.16-11.2-11.36v-25.68c0-7.28,4.32-11.44,11.2-11.44s11.2,4.16,11.2,11.44v25.68ZM110.96,53.44c1.6,0,2-1.6,2-3.92v-27.76c0-2.32-.4-4-2-4s-1.92,1.68-1.92,4v27.76c0,2.32.4,3.92,1.92,3.92Z"/><path class="cls-1" d="M140.48,32.4h-.16l-2.56,26.8h-8.64l-5.68-47.2h8.88l2.4,27.76h.24l2.16-27.76h7.2l2.16,27.76h.24l2.4-27.76h8.24l-5.76,47.2h-8.72l-2.4-26.8Z"/><path class="cls-1" d="M179.68,35.84c0,7.12-4,11.12-10.48,11.12-1.76,0-3.44-.32-4.8-.96-.88.32-1.52.8-1.52,1.6,0,1.28,1.12,1.52,2.72,1.52h10.16c6.72,0,10.4,2.88,10.4,9.04,0,6.48-4.96,10.4-13.76,10.4h-4.64c-5.6,0-9.76-1.76-9.76-5.76,0-3.44,3.04-5.04,6-5.28-2.96-.48-5.6-2.32-5.6-5.76s2.32-5.44,5.36-6.08c-3.2-1.68-5.04-5.04-5.04-9.84v-13.28c0-7.2,4.08-11.2,10.48-11.2,5.04,0,8.56,2.72,9.92,6.56,0-3.6,1.36-6.4,4.08-6.4s3.6,2,3.6,4.48v13.76h-5.36v-11.52c0-1.12-.24-1.76-.8-1.76-.64,0-.96.64-.96,1.92v17.44ZM172.72,62.08c3.2,0,4.88-.48,4.88-2.32,0-1.52-.88-2.16-2.88-2.16h-8.4c-1.6,0-2.8.32-2.8,1.92s1.28,2.56,4.24,2.56h4.96ZM171.04,21.52c0-2.24-.4-3.92-1.84-3.92-1.28,0-1.76,1.68-1.76,3.92v15.28c0,2.32.48,3.92,1.76,3.92,1.44,0,1.84-1.6,1.84-3.92v-15.28Z"/><path class="cls-1" d="M198.08,59.2h-9.12V12h9.12v6.56c.64-4.4,2.8-7.2,6.64-7.2s5.92,3.12,5.92,7.28v12.96h-8.72v-10.72c0-1.76-.4-3.04-1.76-3.04-1.28,0-2.08,1.28-2.08,3.04v38.32Z"/><path class="cls-1" d="M212.56,44.88c0-5.52,2-7.68,6.48-10.8,4.88-3.44,6.64-4.24,6.64-12,0-2.64-.24-4.4-2-4.4s-2,1.6-2,4.4v7.68h-8.48v-7.92c0-6.72,4.08-10.48,10.64-10.48,8.8,0,10.64,5.68,10.64,11.52v36.32h-3.6c-3.04,0-5.04-1.52-5.04-5.76v-1.2c-.4,5.2-3.12,7.36-6.72,7.36-4.24,0-6.56-3.2-6.56-8.24v-6.48ZM221.44,49.36c0,2.8.32,4.32,2.08,4.32,1.52,0,2.24-1.84,2.24-4.16v-15.76c-.64,1.28-1.68,2.16-2.8,3.68-1.52,2.16-1.52,4.48-1.52,7.28v4.64Z"/><path class="cls-1" d="M260.24,18.24c.8-4.16,3.12-6.88,7.04-6.88,4.24,0,6.4,3.52,6.4,7.68v40.16h-9.04V20.88c0-1.76-.72-3.04-2.16-3.04-1.36,0-2.24,1.28-2.24,3.04v38.32h-9.12V20.88c0-1.76-.64-3.04-2.08-3.04-1.36,0-2.24,1.28-2.24,3.04v38.32h-9.12V12h9.12v6.56c.72-4.4,3.12-7.2,7.04-7.2s6.16,3.04,6.4,6.88Z"/><path class="cls-1" d="M281.44,36.32c-3.12-2.64-5.04-5.28-5.04-9.44v-4.4c0-7.2,4.16-11.12,10.88-11.12s10.24,4.08,10.24,10.56v7.84h-8.24v-8c0-2.32-.48-4-2-4s-1.92,1.68-1.92,4v3.84c0,2.48,1.28,3.6,3.28,5.52l4.16,3.6c3.04,2.48,4.96,5.2,4.96,9.68v4.56c0,7.2-4.24,10.88-11.04,10.88s-10.48-4.08-10.48-10.56v-8.24h8.32v8.48c0,2.32.64,3.92,2.16,3.92s2-1.6,2-3.92v-4.48c0-2.08-.96-3.44-3.12-5.36l-4.16-3.36Z"/></svg>